# xmcd
#
# Track frame offsets:
#	150
#	23773
#	43224
#	69394
#	108695
#	142139
#	166821
#	203354
#
# Disc length: 3107 seconds
#
# Revision: 17
# Processed by: cddbd v1.5.2PL0 Copyright (c) Steve Scherf et al.
# Submitted via: Jack! The Knife 19 Blackthorn
#
DISCID=6c0c2108
DTITLE=Dream Theater - When Dream And Day Unite
DYEAR=1989
DGENRE=Metal
TTITLE0=A Fortune In Lies
TTITLE1=Status Seeker
TTITLE2=The Ytse Jam
TTITLE3=The Killing Hand
TTITLE4=Light Fuse And Get Away
TTITLE5=Afterlife
TTITLE6=The Ones Who Help To Set The Sun
TTITLE7=Only A Matter Of Time
EXTD=Terry Date
EXTT0=Dominici, Petrucci, Myung, Portnoy, Moore
EXTT1=Dominici, Petrucci, Myung, Portnoy, Moore
EXTT2=Petrucci, Myung, Portnoy, Moore
EXTT3=Dominici, Petrucci, Myung, Portnoy, Moore
EXTT4=Dominici, Petrucci, Myung, Portnoy, Moore
EXTT5=Dominici, Petrucci, Myung, Portnoy, Moore
EXTT6=Dominici, Petrucci, Myung, Portnoy, Moore
EXTT7=Dominici, Petrucci, Myung, Portnoy, Moore
PLAYORDER=
